<?xml version="1.0" encoding="utf-8"?>
<svg version="1.1" id="Layer_1" xmlns="http://www.w3.org/2000/svg" xmlns:xlink="http://www.w3.org/1999/xlink" x="0px" y="0px" viewBox="0 0 3150 1000" xml:space="preserve">
	<defs>
		<linearGradient id="logo-g" x1="0%" y1="0%" x2="100%" y2="100%">
			<stop offset="0%" style="stop-color: #d875f4" />
			<stop offset="100%" style="stop-color: #503ff0" />
		</linearGradient>
	</defs>

	<path fill="url(#logo-g)" d="M2571.33,1.7c105.8-0.8,211.7-0.2,317.5-1.7c40.1-0.2,81.2,0.5,119.6,13.3c26.6,8.2,50.4,23.6,71.4,41.7 c31.3,25.7,50.9,63.2,60.9,102c4.4,15.9,5.4,32.5,5.6,48.9c-0.6,132.9-0.2,265.8-0.3,398.6c-0.1,51.9,0,103.8,1.2,155.7 c0.1,25.4,0,51.1-5,76.2c-10.4,47.8-38.7,91.5-78.5,120.1c-37.5,27.4-84,41-130.2,42.3c-56.6,1.2-113.2,1.5-169.8,1 c-134.4-1.4-269,0.1-403.4-1.5c-15.8,0.7-31.1-3.4-46.2-7.5c-37.3-10.5-72.6-30.4-98.4-59.7c-25.3-27.9-41.3-63.4-48.6-100.1 c-6.2-34.3-5.7-69.2-5.9-103.8c0.4-12.2-0.2-24.9,4.7-36.3c4.1-8.6,14.1-11.4,22.7-13c39.7-6.1,80.5-7.5,119.2-19.5 c56.5-16.1,111-38.3,162.6-66.4c36-19.2,69.7-44.8,109.9-54.7c18.7-5.5,40,16.4,30.2,34.5c-9.3,18.1-25.2,31.5-40.2,44.6 c-51.5,42.1-108.6,76.6-166,110c-24.9,15.2-53,23.9-79.3,36.4c-8.8,4.3-17.9,8.2-25.3,14.7c-10,8.9-13.4,23.7-9.8,36.3 c4.9,17.9,17.5,32.6,31.6,44.2c14,11.8,33.4,11.7,50.7,13.5c58.1,3.3,116.3,0.5,174.4,0.1c73.1-0.5,146.3-2.4,219.4-1.1 c55.1,0.3,110.1,3.1,165.2,2.2c19.3-1,40.7-0.8,56.5-13.5c17.2-13.7,31.3-33.8,32.1-56.4c-0.2-200.5-0.5-401.1-0.8-601.6 c1.2-16.9-4.9-33.7-14.4-47.6c-11.3-16.1-31.4-22.4-50.1-24.4c-32.1-3.4-64.3-1.3-96.5-1.5c-77.1,0.5-154.1,0.1-231.2,0.2 c-65.2-0.5-130.5,1.5-195.7-2c-25.9-0.8-52.1-2-77.7,2.8c-12.8,2.5-25.8,6.9-35.3,16.1c-8.4,8.1-18.2,16.1-21.5,27.8 c-5.7,19.1-5.9,39.3-6.9,59c-2,68.4-0.9,136.8-0.5,205.3c0.4,26.8,0,53.5,1.3,80.3c0.2,16.3,1.1,33.1-3.9,48.8 c-2.1,7.3-9.8,9.9-16.1,12.3c-20.6,6.9-42.1,10.2-63.5,13c-13.1,1.1-28.8,0.7-38.1-10c-8.1-9.1-7.5-22.1-7.8-33.4 c-0.4-62.9,0.3-125.9,0.1-188.8c0.2-46.5-0.6-92.9-0.1-139.3c0.3-23.5,1.2-47.5,9.1-70c12.5-38.1,32.5-75.1,64-100.9 c29.8-24.7,67.8-37.7,105.8-43c39.6-6.1,79.6-3.8,119.5-4.1C2496.73,2.1,2534.03,1.7,2571.33,1.7z" />
	<path fill="url(#logo-g)" d="M2521.53,284.2c63.4-0.8,126.9-0.4,190.4-0.5c32.2,0.5,64.8,0.7,96.5,7.2c18.3,4,37.3,11.1,49.6,25.9 c11.6,14,15.5,32.4,17.6,50c3,28,1.7,56.3,1.3,84.4c-1,39.3-1.6,78.6-1.1,117.9c-0.1,26,0.5,52.2-2.9,78.1 c-2.5,17.8-8.2,36.8-22.8,48.4c-15.7,12.5-36.3,15.8-55.6,17.7c-18.7,1.8-39.4-1.9-52.8-15.9c-14.5-15-19.9-36-23.8-55.8 c-6.6-35.3-8.5-71.4-17-106.4c-3.4-16-7-32.8-18.1-45.5c-15.7-18-38.7-27-61.1-33.6c-25.2-7.1-51.1-11.2-77.1-14.2 c-17.7-1.5-34.7-6.7-52-10.3c-15.8-3.7-33.3-8.4-43-22.5c-10.7-16-11.7-36.1-12.7-54.7c-1.1-18,4.5-37.1,18.5-49.1 C2473.53,289.8,2498.33,285.7,2521.53,284.2z" />
	<path fill="#4e4e4e" d="M675.49,1.49c16.01-2.71,32.36-0.76,48.51-1.4c9.14,0.3,20.27-1.6,27.18,5.93c6.01,5.74,4.9,14.63,5.07,22.16 c-0.37,23.81,0.32,47.65-0.3,71.46c-0.12,10.07-9.92,17.7-19.65,17.06c-25.54,0.1-51.07,0.12-76.61,0 c-9.75,0.64-19.38-6.97-19.65-16.99c-0.76-18.1-0.37-36.25-0.2-54.37C640.01,24.88,655.57,5.94,675.49,1.49z" />
	<path fill="#4e4e4e" d="M956.18,9.14c12.19-7.93,27.28-7.81,41.27-8.74c15.61-0.37,31.59-0.89,46.86,3.03 c10.86,2.51,10.64,15.78,11.18,24.62c-1.16,63.23-1.45,126.49-1.82,189.73c0.32,17.68-0.22,36.81,9.38,52.47 c10.02,15.71,29.87,21.84,47.65,21.82c14.8,0.27,28.17-8.86,35.93-21.03c17.31-26.42,19.7-59.07,33.51-87.05 c15.29-27.31,39.2-49.69,67.4-63.28c31.35-15,67.81-18.67,101.6-10.71c40.73,9.04,77.1,34.97,99.65,69.96 c10.02,14.43,14.33,31.74,18.02,48.66c8.22,40.06,12.39,81.41,8.15,122.23c-2.19,15.12-5.1,31.44-15.71,43.14 c-7.83,7.56-19.55,7.71-29.67,9.23c-34.87,3.25-69.96,2.29-104.9,1.53c-17.26-0.1-31.72-13.89-36.12-29.99 c-7.86-26.67-4.48-54.94-2.86-82.24c23.89,0.27,47.77,0.2,71.68,0.02c0.02-16.01,3.45-32.9-2.78-48.19 c-11.72-26.05-51.74-32.63-70.52-10.71c-11.99,15.46-10.15,36.44-17.68,53.83c-14.43,33.64-35.36,65.52-64.96,87.66 c-27.95,20.91-63.43,30.63-98.13,28.74c-33.78-1.99-68.01-11.18-95.74-31.17c-16.47-11.15-31.67-24.65-42.45-41.49 c-15.27-23-21.77-50.43-25.46-77.42c-6.21-46.05-3.2-92.56-2.71-138.83c0.89-27.31,1.08-54.67,3.74-81.85 C941.19,23.01,947.71,14.22,956.18,9.14z" />
	<path fill="#4e4e4e" d="M1540.05,2.64c14.38-1.87,28.91-1.38,43.39-1.63c8.72,0.15,18.64,0.37,25.49,6.55c5.02,4.51,5.64,11.7,5.76,18 c-0.05,66.56,0.52,133.09,0.69,199.63c0.37,11.2-0.22,22.78,3.32,33.59c6.21,13.4,16.55,26.59,31.79,29.75 c27.16,6.55,55.35,5.49,83.08,5.74c31.2,0.3,62.35-2.04,93.55-0.84c16.84,0.32,34.97,0.47,49.77-8.79 c12.51-7.34,19.43-21.3,21.47-35.26c4.41-29.33-2.44-58.97,0.98-88.38c1.53-12.12,6.11-24.62,16.05-32.33 c11.15-8.89,25.95-10.44,39.67-11.72c16.38-1.03,33.22-1.77,49.27,2.36c6.13,1.65,14.28,5.05,13.69,12.78 c0.64,31.52,0.96,63.09,0.17,94.63c-0.62,23-2.76,46.34-10.71,68.11c-7.36,20.31-19.77,38.44-34.18,54.42 c-13.67,15.22-29.33,29.06-47.82,38.09c-19.87,10.12-42.13,14.21-64.1,16.35c-39.2,3.45-78.55,1.55-117.8,2.95 c-39.87,0.86-80.64,3.42-119.48-7.58c-40.63-11.03-78.43-35.8-100.98-71.83c-13.08-20.07-20.59-43.36-23.76-67 c-4.73-28.71-1.95-57.84-2.22-86.75c-0.17-36.12,0.02-72.25,0.81-108.37c0.49-14.23-1.92-29.77,5.93-42.53 C1511.41,10.06,1526.23,4.54,1540.05,2.64z" />
	<path fill="#4e4e4e" d="M452.45,123.82c36.84-19.7,81.51-24.23,121.5-12.09c35.04,10.34,65.67,34.25,84.78,65.33 c17.24,29.01,18.32,64.98,37.63,92.98c11.5,17.43,34.92,25.98,54.79,19.11c15.66-4.46,30.48-15.27,34.38-31.84 c9.43-34.5-1.85-70.74,5.61-105.46c2.17-11.5,10.42-20.96,21-25.63c17.56-9.58,38.02-6.38,57.15-6.94 c9.21,0.15,18.69-0.91,27.73,1.48c6.03,1.4,8.82,7.73,9.18,13.37c1.18,13.1,0.17,26.25,0.17,39.35 c-0.44,33.98,2.71,68.43-4.06,101.97c-10.47,42.11-37.06,80.13-73.36,103.96c-61.9,41.52-151.93,32.33-205-19.63 c-14.45-13.76-26.59-29.82-36.99-46.81c-14.18-23.84-11.55-53.8-25.98-77.44c-6.45-10.88-19.55-14.58-31.44-14.7 c-13.44-1.03-28.74,3-36.2,15.12c-10.51,16.84-8.4,37.63-7.9,56.54c24.18,0.47,48.36,0.47,72.57,0.25 c2.24,28.02,5.54,57.45-4.6,84.36c-5.49,15.02-19.5,27.75-36.05,27.87c-33.78,1.03-67.67,1.9-101.4-0.44 c-8.77-0.98-18.02-1.18-26.05-5.17c-9.9-7.68-18.64-18.49-19.8-31.4c-2.09-23.71-0.59-47.57-0.84-71.34 c-0.25-28.22,1.35-56.86,9.63-84.02C390.37,174.84,417.43,142.09,452.45,123.82z" />
	<path fill="#4e4e4e" d="M1042.61,494.83c6.85-2.09,14.11-1.92,21.23-1.95c45.19,0.2,90.37-0.07,135.53,0.12 c9.97-0.81,18.96,8,18.44,17.98c0.37,22.14-0.07,44.3,0.2,66.46c-0.05,7.02,0.27,15.29-5.47,20.44c-5.37,5.54-13.62,5-20.68,5.12 c-54.2-0.27-108.42,0.17-162.64-0.22c-9.7,0.42-18.2-8.35-17.73-18c-0.22-16.45-0.25-32.95,0.02-49.4 C1011.74,517.02,1025.03,499.93,1042.61,494.83z" />
	<path fill="#4e4e4e" d="M1424.04,494.04c4.6-0.98,9.31-1.08,14.04-1.13c45.16,0.07,90.35,0.05,135.53,0 c6.11,0.02,13.12,0.34,17.53,5.27c6.03,5.81,4.8,14.9,5.05,22.51c-0.39,22.16,0.47,44.35-0.39,66.48 c-0.34,9.87-10.32,16.7-19.72,15.73c-55.03,0.05-110.09,0-165.13,0.02c-8.52,0.69-18.15-3.52-20.39-12.41 c-1.82-10.86-0.47-21.94-0.84-32.9c0.42-12.56-1.7-25.78,3.35-37.7C1398.48,507.07,1410.33,496.92,1424.04,494.04z" />
	<path fill="#4e4e4e" d="M412.04,514.11c16.01-2.66,32.33-0.71,48.46-1.35c9.11,0.34,19.99-1.67,27.06,5.54 c5.47,4.95,5.42,12.78,5.47,19.58c-0.1,22.21-0.07,44.4,0,66.58c-0.02,6.8-0.22,14.6-5.71,19.48c-6.3,6.53-16.1,5.22-24.33,5.49 c-23.02-0.37-46.07,0.44-69.07-0.37c-10.1-0.07-18.25-9.65-17.48-19.58c-0.1-17.34-0.27-34.67,0.12-51.98 C376.85,537.18,392.32,518.57,412.04,514.11z" />
	<path fill="#4e4e4e" d="M876.33,535.09c17.29-2.66,34.87-2.34,52.3-1.9c8.42,0.76,19.85,1.4,23.49,10.64 c4.68,13.74,1.75,28.54,2.02,42.75c-0.25,63.41-2.86,126.91,1.08,190.25c-0.22,30.9,35.73,56.86,64.76,44.72 c16.4-6.94,30.31-20.34,36.91-36.99c8.03-19.21,10.76-40.24,19.58-59.15c18.25-40.19,52.65-74.02,95.25-87.19 c33.73-10.61,70.6-6.25,103.22,6.16c37.4,14.41,66.63,45.26,84.34,80.69c11.15,23.39,12.46,50.41,25.51,73.01 c7.78,13.72,22.88,22.19,38.49,23.1c22.46,2.24,45.38-13.12,51.39-35.02c9.28-32.65-0.34-66.98,5.59-100.05 c2.24-12.58,8.79-25.14,20.29-31.54c15.37-8.91,33.71-7.41,50.77-8.18c11.3,0.07,23.2-1.43,33.96,2.88 c7.24,2.93,10,11.06,11.06,18.17c4.65,38.02-6.6,76.65,1.65,114.38c3.72,18.3,18.84,33.19,37.28,36.39 c21,6.01,45.04-3.1,56.44-21.79c15.19-25.12,14.23-56.44,29.03-81.73c31.54-53.31,94.33-90.22,157.1-81.6 c32.23,4.24,61.71,20.44,86.48,40.95c21.52,17.75,36.76,42.43,44.4,69.19c12.73,43.61,10.74,89.61,9.38,134.52 c-0.59,15.19-3.1,32.18-15.44,42.58c-11.4,10.69-27.78,12.02-42.62,12.34c-29.15,0.52-58.43,3.5-87.49,0.05 c-11.82-1.65-24.38-4.48-33.29-12.93c-9.04-9.01-11.23-22.38-12.24-34.57c-1.4-21.3-0.3-42.67-0.25-64 c24.4-0.05,48.8-0.47,73.23-0.86c-0.54-16.77,3-34.62-4.24-50.41c-13.17-25.68-54.17-28.86-71.36-5.81 c-9.92,15.07-10,33.91-15.71,50.58c-20.96,69.54-91.11,121.1-163.9,118.93c-38.66-0.79-75.62-16.79-105.88-40.29 c-28.15,20.66-60.75,36.54-95.81,40.19c-25.36,2.86-51.44-0.37-75.05-10.22c-5.02-2.98-9.92,1.16-14.41,3.1 c-12.53,6.82-27.21,6.99-41.1,7.26c-26.27-0.15-52.57,0.71-78.85-0.22c-11.57-0.39-23.42-3.35-32.5-10.81 c-10.42-7.81-13.76-21.37-15.29-33.64c-2.27-22.51,0-45.11-0.54-67.67c24.28-0.3,48.53-0.74,72.81-0.84 c0.07-16.62,3.3-34.28-3.42-50.04c-13.74-28.12-60.7-28.88-75.28-1.18c-11.55,22.46-10.74,49-21.89,71.63 c-26.27,54.22-82.69,93.15-143.12,96.48c-52.4,2.88-106.06-19.85-139.45-60.55c-20.22-24.82-33.66-55.23-38.19-86.92 c-3.32-29.75-1.4-59.69-1.55-89.53c0.66-38.54-0.49-77.1,1.33-115.61c0.79-8.62,0.81-17.66,4.33-25.71 C848.28,546.24,861.68,537.18,876.33,535.09z" />
	<path fill="#4e4e4e" d="M525.83,627.9c9.23-7.53,21.47-9.41,32.97-10.49c23.84-1.75,47.75-0.91,71.63-0.66 c26.15,0.64,53.02,1.45,77.71,11.03c33.54,13.4,62.37,37.87,81.75,68.28c17.95,28.15,26.62,62.4,22.51,95.66 c-4.63,37.55-22.8,73.5-51.07,98.79c-27.83,25.09-64.32,39.84-101.43,43.58c-31.17,0.3-62.35,0.3-93.55,0.02 c-38.27-0.74-78.23-3.94-112.36-22.85c-37.11-20.54-66.44-56.19-76.78-97.59c-2.22-7.21-4.33-14.43-6.18-21.74 c-8.86-0.47-17.73-0.69-26.59-0.94c-2.95,22.21-1.33,44.79-4.73,66.95c-6.77,37.45-25.71,73.06-54.81,97.86 c-28.71,24.57-65.43,38.83-102.71,43.39c-44.57,5.1-88.7-14.9-120.29-45.48C31.48,923.95,7.94,884.75,4.29,841.66 c-3.05-36.35,0.52-72.79-0.98-109.18c-0.27-23.15-2.27-46.79,3.5-69.46c4.65-18.1,21.57-31.81,40.14-33.02 c13.91-0.89,27.87-0.69,41.79-1.06c9.65,0.15,20.51-0.34,28.54,5.93c5.54,4.48,5.1,12.24,5.24,18.64 c-0.3,51.78,0.22,103.57,0.94,155.33c1.01,18.79,0.81,38.91,10.39,55.75c6.23,10.88,18.32,16.7,30.31,18.57 c13.84,2.29,29.65,2.12,41.12-7.02c11.4-9.31,15.51-24.35,17.53-38.34c4.92-37.35-1.55-75.35,4.68-112.61 c2.51-13,6.65-27.36,18.22-35.16c11.33-7.46,25.46-7.58,38.54-8.13c56.32-0.84,112.68,0.39,169-1.11c6.77,0.25,14.5-0.2,20.14,4.24 c6.11,5.76,5.54,14.92,6.06,22.63c0.66,28.93-2.76,59.71,10.37,86.55c6.72,14.48,21.4,24.62,37.35,25.68 c39,3.25,78.38,3.45,117.38-0.25c12.36-1.82,25.78-2.44,36.54-9.46c20.34-17.66,19.9-55.8-2.95-71.16 c-16.42-8.84-35.93-6.13-53.8-5.24c-0.3,18.99,0.27,37.99-0.84,56.96c-25.46-0.62-51.24,3.3-76.46-1.7 c-13.81-2.31-26.27-11.79-32.11-24.53c-3.18-8.64-3.25-18-4.06-27.09c-1.5-26.42-1.82-53.06,1.11-79.41 C513.12,646.88,516.92,635.24,525.83,627.9z" />
</svg>